<svg width="12" height="14" viewBox="0 0 12 14" fill="none" xmlns="http://www.w3.org/2000/svg">
<g clip-path="url(#clip0_1033_27626)">
<path d="M8.74988 0.125C8.76967 0.36052 8.79259 0.596041 8.77766 0.832932C8.73877 1.43836 8.54295 1.97385 8.07734 2.3945C7.68569 2.74829 7.2239 2.97387 6.72357 3.13088C6.54267 3.18779 6.35726 3.22756 6.16977 3.2591C6.1104 3.26904 6.08054 3.26836 6.07915 3.19431C6.06457 2.45483 6.20206 1.75924 6.71801 1.18913C7.09335 0.774309 7.57562 0.510335 8.09643 0.313553C8.28393 0.242932 8.47732 0.187394 8.66829 0.125C8.69537 0.125 8.72245 0.125 8.74988 0.125Z" fill="#010101"/>
<path d="M0.375968 7.38813C0.35583 6.48616 0.649221 5.53962 1.32836 4.7237C1.7405 4.22832 2.22902 3.82927 2.86094 3.63523C3.54668 3.42474 4.22617 3.44668 4.89455 3.71442C5.11641 3.80321 5.34071 3.88652 5.56084 3.97874C5.94833 4.14124 6.32748 4.09393 6.7108 3.95851C7.10627 3.81864 7.47813 3.61535 7.89096 3.52553C8.74023 3.34074 9.54576 3.45353 10.2957 3.89681C10.6645 4.11484 10.9787 4.39596 11.253 4.72267C11.3176 4.79981 11.3019 4.82757 11.2273 4.8814C10.7784 5.20434 10.4068 5.59756 10.1433 6.08368C9.78186 6.75013 9.74124 7.44812 9.95581 8.1636C10.2034 8.98912 10.6777 9.64768 11.4474 10.0793C11.4672 10.0903 11.4863 10.1023 11.5061 10.1126C11.7325 10.2291 11.7356 10.2305 11.6353 10.4687C11.3082 11.2452 10.9499 12.0067 10.428 12.6779C10.1013 13.0982 9.67214 13.4092 9.23015 13.6995C8.87565 13.9326 8.49337 13.9008 8.10727 13.7842C7.8302 13.7006 7.55868 13.6011 7.29446 13.4863C6.69239 13.2244 6.09346 13.2391 5.48619 13.4688C5.14488 13.5977 4.8074 13.7376 4.45116 13.8284C3.97097 13.9508 3.54946 13.8185 3.15225 13.5621C2.63803 13.2302 2.25229 12.7732 1.91028 12.2806C1.25823 11.3412 0.830117 10.3039 0.577002 9.19584C0.452007 8.65007 0.376315 8.09606 0.375968 7.38813Z" fill="black"/>
</g>
<defs>
<clipPath id="clip0_1033_27626">
<rect width="11.3235" height="13.75" fill="white" transform="translate(0.375 0.125)"/>
</clipPath>
</defs>
</svg>
