<svg width="16" height="16" viewBox="0 0 16 16" fill="none" xmlns="http://www.w3.org/2000/svg">
<path d="M0.00644417 3.24172C0.0620519 3.08849 0.108019 2.93191 0.144069 2.77294C0.305268 2.32769 0.596392 1.94109 0.979764 1.66315C1.36314 1.3852 1.82111 1.22871 2.2944 1.21395C2.5252 1.21395 2.75529 1.21395 2.98466 1.21395C3.06207 1.21395 3.08787 1.19675 3.08357 1.11719C3.08357 0.955916 3.08357 0.794641 3.08357 0.633366C3.08357 0.477674 3.14542 0.328353 3.25552 0.218262C3.36561 0.10817 3.51493 0.0463298 3.67062 0.0463298C3.82631 0.0463298 3.97562 0.10817 4.08571 0.218262C4.1958 0.328353 4.25766 0.477674 4.25766 0.633366C4.25766 0.794641 4.25766 0.955918 4.25766 1.11934C4.25766 1.186 4.27272 1.20964 4.34583 1.20964H6.8144C6.88322 1.20964 6.90902 1.19461 6.90687 1.1215C6.90687 0.960221 6.90687 0.796794 6.90687 0.635519C6.90201 0.555295 6.91363 0.474924 6.94099 0.399355C6.96835 0.323786 7.01088 0.254602 7.06596 0.196081C7.12105 0.13756 7.18753 0.0909351 7.26131 0.0590607C7.33509 0.0271862 7.41461 0.0107359 7.49498 0.0107359C7.57535 0.0107359 7.65487 0.0271862 7.72865 0.0590607C7.80243 0.0909351 7.86891 0.13756 7.924 0.196081C7.97908 0.254602 8.02162 0.323786 8.04898 0.399355C8.07634 0.474924 8.08795 0.555295 8.08309 0.635519C8.08309 0.792493 8.08309 0.949455 8.08309 1.10643C8.08309 1.17954 8.09815 1.20536 8.17771 1.20536H10.6635C10.7366 1.20536 10.7646 1.1903 10.7624 1.11073C10.7624 0.949459 10.7624 0.786032 10.7624 0.624757C10.7576 0.544533 10.7692 0.464162 10.7965 0.388593C10.8239 0.313023 10.8664 0.243866 10.9215 0.185345C10.9766 0.126824 11.0431 0.0801729 11.1169 0.0482985C11.1906 0.0164241 11.2702 0 11.3505 0C11.4309 0 11.5104 0.0164241 11.5842 0.0482985C11.658 0.0801729 11.7245 0.126824 11.7795 0.185345C11.8346 0.243866 11.8772 0.313023 11.9045 0.388593C11.9319 0.464162 11.9435 0.544533 11.9387 0.624757C11.9387 0.770979 11.9387 0.919352 11.9387 1.05482C11.9387 1.16019 11.9559 1.19245 12.072 1.19245C12.3997 1.17779 12.728 1.18569 13.0547 1.2161C13.5512 1.29342 14.0101 1.52684 14.3651 1.88254C14.72 2.23824 14.9524 2.69775 15.0287 3.19442C15.0488 3.3448 15.0581 3.49643 15.0566 3.64814V6.87364C15.0626 6.98443 15.0363 7.09456 14.981 7.19073C14.9256 7.28689 14.8436 7.36496 14.7448 7.4155C14.6547 7.46697 14.552 7.49224 14.4482 7.48844C14.3445 7.48464 14.2439 7.45193 14.1578 7.394C14.0662 7.33627 13.9921 7.25477 13.9432 7.1582C13.8944 7.06163 13.8727 6.95363 13.8804 6.84568C13.8804 5.77051 13.8804 4.69535 13.8804 3.62018C13.8906 3.34391 13.8081 3.07215 13.646 2.84819C13.5412 2.70298 13.4041 2.5841 13.2455 2.50089C13.0869 2.41768 12.9112 2.37241 12.7321 2.36867C12.4956 2.36867 12.2612 2.36867 12.0247 2.36867C11.9537 2.36867 11.9343 2.39019 11.9365 2.459C11.9365 2.62027 11.9365 2.7837 11.9365 2.94497C11.9414 3.0252 11.9297 3.10557 11.9024 3.18114C11.875 3.25671 11.8325 3.32586 11.7774 3.38439C11.7223 3.44291 11.6558 3.48956 11.582 3.52143C11.5083 3.55331 11.4287 3.56973 11.3484 3.56973C11.268 3.56973 11.1885 3.55331 11.1147 3.52143C11.0409 3.48956 10.9745 3.44291 10.9194 3.38439C10.8643 3.32586 10.8217 3.25671 10.7944 3.18114C10.767 3.10557 10.7554 3.0252 10.7603 2.94497C10.7603 2.78442 10.7603 2.62314 10.7603 2.46115C10.7603 2.39879 10.7603 2.36222 10.6785 2.36222C9.83992 2.36222 9.00344 2.36222 8.16481 2.36222C8.09815 2.36222 8.08094 2.38157 8.08309 2.44608C8.08309 2.60736 8.08309 2.76863 8.08309 2.92991C8.08795 3.01013 8.07634 3.0905 8.04898 3.16607C8.02162 3.24164 7.97908 3.31082 7.924 3.36934C7.86891 3.42787 7.80243 3.47449 7.72865 3.50637C7.65487 3.53824 7.57535 3.55469 7.49498 3.55469C7.41461 3.55469 7.33509 3.53824 7.26131 3.50637C7.18753 3.47449 7.12105 3.42787 7.06596 3.36934C7.01088 3.31082 6.96835 3.24164 6.94099 3.16607C6.91363 3.0905 6.90201 3.01013 6.90687 2.92991C6.90687 2.76863 6.90687 2.6052 6.90687 2.44393C6.90687 2.37297 6.88537 2.35579 6.81656 2.35579H4.35658C4.28562 2.35579 4.26625 2.37512 4.26841 2.44608C4.26841 2.59661 4.26841 2.74928 4.26841 2.90195C4.27537 2.98327 4.26537 3.06515 4.23903 3.14239C4.21269 3.21964 4.1706 3.29059 4.11541 3.35071C4.06022 3.41083 3.99314 3.45883 3.91843 3.49167C3.84371 3.5245 3.76298 3.54143 3.68137 3.54143C3.59976 3.54143 3.51903 3.5245 3.44431 3.49167C3.3696 3.45883 3.30252 3.41083 3.24733 3.35071C3.19213 3.29059 3.15004 3.21964 3.1237 3.14239C3.09737 3.06515 3.08737 2.98327 3.09433 2.90195C3.09433 2.74498 3.09433 2.58802 3.09433 2.43104C3.09433 2.39449 3.10937 2.34718 3.04271 2.34933C2.71521 2.32668 2.38619 2.34182 2.06216 2.39448C1.80624 2.45968 1.58005 2.60987 1.42066 2.82045C1.26126 3.03102 1.17812 3.2895 1.18484 3.55351C1.18484 3.8481 1.18484 4.1427 1.18484 4.43729C1.18484 7.16105 1.18484 9.88983 1.18484 12.6236C1.16886 12.8951 1.24727 13.1638 1.40679 13.384C1.5663 13.6043 1.7971 13.7626 2.06002 13.8321C2.18855 13.8647 2.32099 13.8791 2.45352 13.8751H6.79075C6.90832 13.8641 7.02653 13.888 7.13058 13.9438C7.23462 13.9997 7.31986 14.085 7.37564 14.189C7.4163 14.2647 7.43974 14.3484 7.44427 14.4342C7.4488 14.52 7.43431 14.6057 7.40185 14.6852C7.36938 14.7647 7.31975 14.8361 7.25648 14.8942C7.19321 14.9523 7.11788 14.9957 7.03588 15.0213C7.01438 15.0213 6.98428 15.0212 6.97568 15.0513H2.02776C1.99336 14.9933 1.931 15.0148 1.88369 15.004C1.47697 14.9217 1.09931 14.7331 0.789195 14.4573C0.479081 14.1816 0.247583 13.8286 0.118266 13.4343C0.0873928 13.2951 0.0478964 13.1579 0 13.0236L0.00644417 3.24172Z" fill="#FF5A5F"/>
<path d="M11.1191 15.0907C10.9688 15.0406 10.814 15.0053 10.6568 14.9853C9.24189 14.5896 8.3581 13.6779 8.02265 12.2544C7.87662 11.5521 7.94657 10.8222 8.2233 10.1605C8.50003 9.49881 8.97059 8.93636 9.57305 8.54718C10.1993 8.13359 10.9422 7.93264 11.6915 7.97408C12.4409 8.01552 13.1571 8.29716 13.7339 8.77728C14.2318 9.15481 14.6145 9.66374 14.839 10.2468C15.0635 10.8299 15.1209 11.4641 15.0048 12.078C14.7768 13.493 13.9296 14.4262 12.6007 14.9122C12.3743 14.9921 12.1388 15.0434 11.8997 15.0649C11.8739 15.0649 11.8395 15.0519 11.8244 15.0907H11.1191ZM13.8823 11.534C13.8823 11.0637 13.743 10.604 13.482 10.2129C13.221 9.8217 12.85 9.51659 12.4158 9.33605C11.9816 9.15551 11.5036 9.10761 11.0422 9.19842C10.5808 9.28923 10.1567 9.51466 9.82324 9.84628C9.48983 10.1779 9.2621 10.6008 9.1688 11.0617C9.0755 11.5226 9.1208 12.0009 9.29899 12.436C9.47718 12.8712 9.78028 13.2439 10.17 13.507C10.5598 13.7701 11.0187 13.9119 11.489 13.9144C12.1219 13.9156 12.7293 13.6655 13.178 13.2192C13.6267 12.773 13.88 12.1669 13.8823 11.534Z" fill="#FF5A5F"/>
<path d="M4.26878 6.21587C4.26793 6.33197 4.23267 6.44522 4.16746 6.54128C4.10225 6.63734 4.01001 6.71191 3.90242 6.75555C3.79484 6.79919 3.67673 6.80996 3.56302 6.78647C3.44932 6.76299 3.34513 6.70629 3.26364 6.6236C3.18214 6.5409 3.127 6.4359 3.10518 6.32186C3.08337 6.20783 3.09585 6.08987 3.14107 5.98293C3.18628 5.87599 3.26219 5.78487 3.3592 5.72107C3.4562 5.65727 3.56995 5.62368 3.68605 5.62453C3.84139 5.62679 3.98959 5.69008 4.09864 5.80074C4.20768 5.91139 4.2688 6.06051 4.26878 6.21587Z" fill="#FF5A5F"/>
<path d="M6.82681 6.21155C6.82724 6.32817 6.79305 6.4423 6.72856 6.53948C6.66408 6.63665 6.57221 6.7125 6.46459 6.75743C6.35697 6.80235 6.23844 6.81433 6.12401 6.79184C6.00957 6.76935 5.90439 6.7134 5.82177 6.63109C5.73916 6.54878 5.68283 6.44378 5.65992 6.32943C5.63701 6.21508 5.64854 6.09651 5.69307 5.98872C5.7376 5.88093 5.81312 5.78881 5.91006 5.72397C6.007 5.65913 6.121 5.62451 6.23763 5.62451C6.39334 5.62507 6.54255 5.68703 6.65286 5.79694C6.76317 5.90685 6.82568 6.05583 6.82681 6.21155Z" fill="#FF5A5F"/>
<path d="M8.79057 5.62455C8.90676 5.62327 9.0207 5.65651 9.11799 5.72004C9.21527 5.78358 9.29152 5.87456 9.33706 5.98146C9.38261 6.08835 9.39541 6.20637 9.37384 6.32054C9.35227 6.43472 9.2973 6.53992 9.2159 6.62283C9.13449 6.70574 9.03031 6.76262 8.91655 6.78628C8.80279 6.80995 8.68456 6.79933 8.57685 6.75576C8.46913 6.71218 8.37678 6.63761 8.31147 6.54151C8.24616 6.44541 8.21084 6.33208 8.20998 6.21589C8.20883 6.06056 8.26929 5.91112 8.37812 5.80029C8.48694 5.68945 8.63525 5.62625 8.79057 5.62455Z" fill="#FF5A5F"/>
<path d="M11.943 6.21372C11.943 6.33043 11.9084 6.44451 11.8434 6.54149C11.7785 6.63847 11.6862 6.714 11.5783 6.75847C11.4704 6.80293 11.3517 6.81434 11.2373 6.79125C11.1229 6.76817 11.0179 6.71163 10.9357 6.62879C10.8535 6.54596 10.7977 6.44058 10.7755 6.32601C10.7532 6.21144 10.7655 6.09283 10.8107 5.98524C10.856 5.87766 10.9322 5.78595 11.0296 5.72173C11.1271 5.65751 11.2414 5.62368 11.3581 5.62453C11.5135 5.62622 11.6619 5.68899 11.7714 5.79924C11.8808 5.90949 11.9425 6.05837 11.943 6.21372Z" fill="#FF5A5F"/>
<path d="M4.26879 8.76439C4.26963 8.8804 4.23608 8.99405 4.17238 9.09101C4.10867 9.18796 4.01767 9.26389 3.91086 9.30916C3.80404 9.35444 3.68622 9.36703 3.57224 9.34539C3.45827 9.32374 3.35326 9.26883 3.27048 9.18755C3.1877 9.10627 3.13086 9.00226 3.10713 8.8887C3.08341 8.77514 3.09386 8.65711 3.13718 8.54949C3.18049 8.44186 3.25473 8.34949 3.3505 8.28403C3.44628 8.21856 3.55929 8.18293 3.6753 8.18166C3.83119 8.18051 3.9812 8.24119 4.09244 8.35041C4.20368 8.45964 4.26709 8.6085 4.26879 8.76439Z" fill="#FF5A5F"/>
<path d="M6.24488 8.18164C6.36088 8.18292 6.47391 8.21855 6.56968 8.28402C6.66546 8.34948 6.7397 8.44185 6.78301 8.54947C6.82632 8.6571 6.83678 8.77513 6.81305 8.88869C6.78933 9.00225 6.73248 9.10626 6.6497 9.18754C6.56693 9.26882 6.46192 9.32373 6.34794 9.34538C6.23397 9.36702 6.11613 9.35443 6.00932 9.30915C5.9025 9.26388 5.8115 9.18795 5.7478 9.091C5.68409 8.99404 5.65054 8.88039 5.65138 8.76438C5.65365 8.60867 5.71725 8.46014 5.82837 8.35103C5.93949 8.24193 6.08915 8.18106 6.24488 8.18164Z" fill="#FF5A5F"/>
<path d="M4.26877 11.3199C4.27004 11.4359 4.23687 11.5498 4.17342 11.647C4.10998 11.7443 4.01912 11.8205 3.91235 11.8661C3.80558 11.9117 3.68768 11.9247 3.57356 11.9033C3.45945 11.8819 3.35425 11.8271 3.27125 11.7459C3.18826 11.6647 3.1312 11.5608 3.1073 11.4471C3.0834 11.3335 3.09373 11.2154 3.13697 11.1076C3.18022 10.9999 3.25444 10.9074 3.35026 10.8418C3.44608 10.7762 3.55918 10.7406 3.67528 10.7393C3.83081 10.7381 3.98049 10.7985 4.09167 10.9073C4.20285 11.016 4.26651 11.1643 4.26877 11.3199Z" fill="#FF5A5F"/>
<path d="M6.82681 11.3263C6.82724 11.4429 6.79305 11.5571 6.72856 11.6542C6.66408 11.7514 6.57221 11.8272 6.46459 11.8722C6.35697 11.9171 6.23844 11.9291 6.12401 11.9066C6.00957 11.8841 5.90439 11.8281 5.82177 11.7458C5.73916 11.6635 5.68283 11.5585 5.65992 11.4442C5.63701 11.3298 5.64854 11.2113 5.69307 11.1035C5.7376 10.9957 5.81312 10.9035 5.91006 10.8387C6.007 10.7739 6.121 10.7393 6.23763 10.7393C6.39334 10.7398 6.54255 10.8018 6.65286 10.9117C6.76317 11.0216 6.82568 11.1706 6.82681 11.3263Z" fill="#FF5A5F"/>
<path d="M10.915 10.9218C10.915 10.7262 10.915 10.5283 10.915 10.3326C10.915 10.1769 10.9768 10.0276 11.0869 9.91754C11.197 9.80745 11.3463 9.74561 11.502 9.74561C11.6577 9.74561 11.807 9.80745 11.9171 9.91754C12.0272 10.0276 12.089 10.1769 12.089 10.3326C12.089 10.5047 12.089 10.6767 12.089 10.8466C12.089 10.9154 12.1041 10.9412 12.1772 10.939C12.2844 10.9294 12.3924 10.9359 12.4976 10.9584C12.632 10.9916 12.7503 11.0714 12.8315 11.1836C12.9126 11.2958 12.9512 11.4332 12.9406 11.5712C12.9311 11.7098 12.8719 11.8402 12.774 11.9386C12.676 12.0369 12.5458 12.0966 12.4073 12.1067C12.0912 12.1217 11.7622 12.1217 11.4526 12.1067C11.3063 12.0984 11.1689 12.0341 11.0688 11.9272C10.9687 11.8203 10.9136 11.679 10.915 11.5325C10.9085 11.3325 10.915 11.1261 10.915 10.9218Z" fill="#FF5A5F"/>
</svg>
