<svg width="20" height="20" viewBox="0 0 20 20" fill="none" xmlns="http://www.w3.org/2000/svg">
<path d="M15.2916 0.454102H15.6626C15.6626 0.454102 15.6626 0.481391 15.6817 0.484119C15.9036 0.536157 16.106 0.650609 16.2651 0.813972C16.4241 0.977335 16.5331 1.18277 16.5791 1.40605C16.6326 1.60434 16.6175 1.8149 16.5363 2.00355C16.4551 2.19219 16.3125 2.34785 16.1317 2.44529C16.0199 2.52167 16.0336 2.57623 16.1072 2.67715C16.7855 3.61001 17.4619 4.54468 18.1366 5.48118C18.1597 5.52019 18.193 5.5522 18.2328 5.57381C18.2727 5.59543 18.3176 5.60583 18.363 5.60393C18.6637 5.60521 18.9527 5.72121 19.1709 5.92824C19.3891 6.13527 19.52 6.41776 19.5371 6.71805C19.5541 7.01835 19.456 7.31383 19.2626 7.54423C19.0693 7.77463 18.7953 7.92258 18.4966 7.9579C18.4483 7.95786 18.4011 7.97207 18.3608 7.99876C18.3205 8.02545 18.289 8.06341 18.2702 8.10792C17.8065 9.05988 17.3319 10.0173 16.8627 10.9556C16.8409 11.002 16.7918 11.0484 16.8273 11.1165H18.9303C19.0099 11.1136 19.0891 11.1268 19.1634 11.1555C19.2376 11.1841 19.3052 11.2276 19.3622 11.2832C19.4191 11.3389 19.464 11.4055 19.4944 11.4791C19.5247 11.5526 19.5398 11.6316 19.5386 11.7112C19.5386 11.9458 19.5386 12.1831 19.5386 12.4176C19.5374 12.5646 19.4804 12.7055 19.3791 12.8119C19.2778 12.9183 19.1397 12.9821 18.9931 12.9904C18.8115 13.0047 18.6291 13.0047 18.4475 12.9904C18.2839 12.9904 18.243 13.0286 18.2457 13.195C18.2457 15.1698 18.2457 17.1474 18.2457 19.1222C18.2457 19.4495 18.1529 19.545 17.8256 19.545H10.8346C10.5073 19.545 10.42 19.455 10.42 19.125C10.42 17.1474 10.42 15.1726 10.42 13.195C10.42 13.0341 10.3846 12.9904 10.2182 12.9904C8.58157 12.9904 6.94498 12.9904 5.30838 12.9904C5.14472 12.9904 5.09288 13.0232 5.09288 13.2005C5.09288 15.1753 5.09288 17.1529 5.09288 19.1277C5.09288 19.455 5.00014 19.545 4.6701 19.545H2.20974C1.84423 19.545 1.76242 19.4632 1.76242 19.095C1.76242 17.2183 1.76242 15.3417 1.76242 13.4651C1.76242 13.3123 1.83606 13.1105 1.72696 13.0232C1.61785 12.9359 1.45418 12.985 1.29598 12.9986C1.12808 13.0334 0.953318 13.0103 0.800243 12.9331C0.647167 12.8558 0.524805 12.7289 0.453125 12.5731V11.523C0.531325 11.3785 0.651201 11.2609 0.797146 11.1855C0.943091 11.1101 1.10835 11.0804 1.27142 11.1002C2.29703 11.1193 3.32263 11.1002 4.34824 11.1002C4.47644 11.1002 4.51734 11.0674 4.51189 10.9365C4.51189 10.6828 4.51189 10.4264 4.51189 10.1728C4.51189 10.0391 4.47371 10.0118 4.34551 10.0118C3.5763 10.0118 2.80438 10.0118 2.03518 10.0118C1.88833 10.0263 1.7401 10.0079 1.60118 9.9582C1.46225 9.90847 1.33607 9.82855 1.23173 9.72421C1.12739 9.61987 1.04749 9.49369 0.997759 9.35477C0.948024 9.21584 0.929704 9.06763 0.944118 8.92078C0.944118 7.22417 0.944118 5.52756 0.944118 3.83095C0.929704 3.6841 0.948024 3.53589 0.997759 3.39696C1.04749 3.25804 1.12739 3.13186 1.23173 3.02752C1.33607 2.92318 1.46225 2.84326 1.60118 2.79353C1.7401 2.74379 1.88833 2.72547 2.03518 2.73988H9.58262C9.73033 2.72431 9.87965 2.74172 10.0198 2.79084C10.16 2.83997 10.2875 2.91958 10.3932 3.02395C10.4989 3.12833 10.5801 3.25486 10.6309 3.39441C10.6818 3.53396 10.7011 3.68306 10.6873 3.83095V8.90441C10.6998 9.05083 10.6801 9.1982 10.6297 9.33622C10.5792 9.47424 10.4993 9.59959 10.3953 9.7035C10.2914 9.80741 10.1661 9.88738 10.0281 9.93781C9.89006 9.98824 9.74268 10.0079 9.59626 9.99548C8.82706 9.99548 8.05513 9.99548 7.28593 9.99548C7.17137 9.99548 7.12227 10.0146 7.12772 10.1455C7.12772 10.4046 7.12772 10.6665 7.12772 10.9283C7.12772 11.0456 7.155 11.0838 7.28047 11.0838C8.64612 11.0838 10.0099 11.0838 11.372 11.0838C11.522 11.0838 11.5438 11.0347 11.5438 10.9038C11.5438 10.2028 11.5438 9.49904 11.5438 8.79803C11.5343 8.63633 11.5343 8.4742 11.5438 8.3125C11.5591 8.17621 11.6224 8.04982 11.7224 7.95589C11.8223 7.86196 11.9524 7.8066 12.0893 7.7997C12.7549 7.7997 13.4204 7.7997 14.0833 7.7997C14.2113 7.79724 14.3361 7.83989 14.4358 7.92018C14.5355 8.00047 14.6039 8.11328 14.6288 8.23886C14.6533 8.45435 14.7515 8.46525 14.9261 8.46525C15.0492 8.45888 15.1722 8.47857 15.2872 8.52303C15.4022 8.5675 15.5065 8.63574 15.5932 8.72328C15.68 8.81082 15.7473 8.91571 15.7908 9.03106C15.8342 9.14641 15.8528 9.26962 15.8453 9.39266C15.8453 9.58632 15.8453 9.77726 15.8453 9.97092C15.8429 10.1237 15.7996 10.2731 15.72 10.4036C15.6404 10.5341 15.5274 10.6408 15.3926 10.7129C15.2384 10.7951 15.0653 10.8355 14.8906 10.8301C14.8034 10.8301 14.6533 10.7456 14.6588 10.9583C14.6643 11.1711 14.8143 11.0729 14.8988 11.0756C15.248 11.0756 15.5944 11.0756 15.9435 11.0756C15.9943 11.0823 16.046 11.0713 16.0897 11.0445C16.1334 11.0177 16.1665 10.9767 16.1836 10.9283C16.6782 9.92092 17.1764 8.91623 17.6783 7.91427C17.7302 7.81062 17.7383 7.76151 17.632 7.67968C17.4941 7.57805 17.3805 7.44723 17.2991 7.29657C17.2178 7.1459 17.1707 6.97911 17.1613 6.80814C17.152 6.63717 17.1805 6.46624 17.2449 6.30757C17.3092 6.14891 17.4079 6.00642 17.5338 5.89033C17.6456 5.78668 17.6129 5.73213 17.5338 5.63666C16.8982 4.76381 16.2654 3.89096 15.6244 3.01811C15.5889 2.96901 15.5753 2.87355 15.488 2.90082C15.4007 2.9281 15.4171 3.0181 15.4198 3.09448C15.4318 3.29994 15.393 3.5052 15.3069 3.69214C15.2208 3.87908 15.09 4.04198 14.9261 4.16646C14.6943 4.35467 14.4597 4.53743 14.2224 4.712C14.1903 4.74678 14.1504 4.7734 14.106 4.78966C14.0615 4.80592 14.0138 4.81135 13.9669 4.80548C13.9199 4.79961 13.8751 4.78263 13.836 4.75593C13.7969 4.72923 13.7648 4.69359 13.7423 4.65198C13.1659 3.9246 12.594 3.19723 12.0266 2.46985C11.9936 2.43828 11.9684 2.39955 11.9528 2.35666C11.9372 2.31376 11.9317 2.26785 11.9367 2.22249C11.9417 2.17712 11.9571 2.13351 11.9817 2.09504C12.0063 2.05658 12.0394 2.02431 12.0784 2.0007C12.3294 1.79885 12.5803 1.59428 12.8394 1.40334C12.9921 1.28534 13.1712 1.20609 13.3612 1.17236C13.5512 1.13863 13.7465 1.15143 13.9305 1.20967C13.9767 1.22588 14.0264 1.22937 14.0744 1.21978C14.1224 1.21018 14.1669 1.18784 14.2033 1.15511C14.5356 0.877309 14.9012 0.641837 15.2916 0.454102ZM5.80208 7.4642C7.16592 7.4642 8.52975 7.4642 9.89358 7.4642C10.0409 7.4642 10.0927 7.43965 10.0927 7.27599C10.0927 6.14674 10.0927 5.01476 10.0927 3.88278C10.0927 3.49545 9.95904 3.3618 9.56626 3.3618H2.07609C1.67785 3.3618 1.54965 3.48453 1.54965 3.88005C1.54965 5.01203 1.54965 6.14128 1.54965 7.27326C1.54965 7.42601 1.58511 7.46693 1.74059 7.46693C3.09078 7.46147 4.44644 7.4642 5.80208 7.4642ZM14.3124 18.9504C15.3625 18.9504 16.4127 18.9504 17.4628 18.9504C17.5965 18.9504 17.6374 18.9231 17.6374 18.7785C17.6374 16.9128 17.6374 15.048 17.6374 13.1841C17.6374 13.0341 17.591 13.0041 17.4519 13.0041C15.3571 13.0041 13.2659 13.0041 11.1783 13.0041C11.0392 13.0041 11.0065 13.0395 11.0065 13.1759C11.0065 15.0471 11.0065 16.9183 11.0065 18.7895C11.0065 18.9231 11.0447 18.9504 11.1729 18.9504C12.2121 18.9477 13.2622 18.9504 14.3124 18.9504ZM2.35978 15.9663C2.35978 16.9101 2.35978 17.8548 2.35978 18.8004C2.35978 18.9204 2.38705 18.9558 2.51252 18.9531C3.11261 18.9531 3.71451 18.9531 4.31824 18.9531C4.44644 18.9531 4.48189 18.9231 4.48189 18.7922C4.48189 16.921 4.48189 15.0507 4.48189 13.1814C4.48189 13.0505 4.46007 13.0041 4.31277 13.0041C3.7236 13.015 3.13352 13.015 2.54252 13.0041C2.40069 13.0041 2.35705 13.0341 2.35705 13.1841C2.3625 14.117 2.35978 15.0416 2.35978 15.9663ZM9.99723 12.4013H11.0392C13.4995 12.4013 15.9599 12.4013 18.4203 12.4013C18.5921 12.4013 18.8185 12.4776 18.9167 12.3685C19.0149 12.2594 18.9303 12.0467 18.9467 11.883C18.963 11.7194 18.9085 11.7112 18.7748 11.7112C17.2337 11.7112 15.6926 11.7112 14.1515 11.7112H1.57148C1.39963 11.7112 1.17324 11.6348 1.07504 11.7466C0.976844 11.8585 1.06141 12.0658 1.04504 12.2321C1.02867 12.3985 1.08321 12.4013 1.2196 12.4013C2.51797 12.4013 3.81634 12.4013 5.11471 12.4013H9.99723ZM5.82389 8.06156C4.46006 8.06156 3.09623 8.06156 1.7324 8.06156C1.58238 8.06156 1.5442 8.10247 1.55238 8.24431C1.55238 8.46797 1.55238 8.69165 1.55238 8.91532C1.55238 9.31356 1.68058 9.44175 2.07609 9.43902H6.63948H9.60172C9.95086 9.43902 10.0954 9.29174 10.0982 8.93987C10.0982 8.70257 10.0982 8.46798 10.0982 8.23067C10.0982 8.0861 10.0545 8.06156 9.92085 8.06156C8.55702 8.06429 7.19045 8.06156 5.82389 8.06156ZM14.0723 9.75544C14.0723 9.36539 14.0723 8.97259 14.0723 8.58253C14.0723 8.46797 14.056 8.42161 13.9251 8.42161C13.3795 8.42161 12.834 8.42161 12.2885 8.42161C12.1548 8.42161 12.1357 8.4707 12.1357 8.58526C12.1357 9.37447 12.1357 10.1628 12.1357 10.9502C12.1357 11.0865 12.1821 11.1138 12.3048 11.1138C12.8394 11.1138 13.3741 11.1138 13.9087 11.1138C14.0369 11.1138 14.0778 11.0811 14.0751 10.9502C14.0669 10.5519 14.0723 10.1591 14.0723 9.75544ZM14.847 3.18449C14.8478 3.02715 14.7893 2.87528 14.6833 2.75898C14.5006 2.5244 14.3178 2.28709 14.1378 2.05797C14.0849 1.98847 14.0187 1.93027 13.943 1.88677C13.8672 1.84327 13.7836 1.81536 13.6969 1.80468C13.6102 1.79401 13.5223 1.80078 13.4383 1.82461C13.3543 1.84843 13.2759 1.88883 13.2077 1.94341C13.0631 2.04706 12.9349 2.16981 12.7794 2.27073C12.6894 2.33347 12.6949 2.37711 12.7604 2.45621C13.074 2.849 13.3741 3.2527 13.6959 3.6373C13.8323 3.79823 13.9142 4.10372 14.1269 4.07645C14.3397 4.04917 14.4842 3.83096 14.6506 3.68366C14.7182 3.62015 14.7709 3.54244 14.8048 3.45613C14.8388 3.36982 14.8532 3.27704 14.847 3.18449ZM5.82935 10.0391C5.62478 10.0391 5.42021 10.0391 5.21836 10.0391C5.13926 10.0391 5.10925 10.0582 5.11198 10.1428C5.11198 10.4155 5.11198 10.7128 5.11198 10.9965C5.11198 11.0865 5.13652 11.1165 5.22654 11.1138H6.41581C6.50582 11.1138 6.53309 11.0865 6.53037 10.9965C6.53037 10.7238 6.53037 10.4264 6.53037 10.1428C6.53037 10.0582 6.50581 10.0364 6.42398 10.0391C6.22759 10.0418 6.02847 10.0391 5.82935 10.0391ZM15.188 2.43439C15.4226 2.24891 15.6462 2.07706 15.8672 1.88885C15.9063 1.86069 15.9392 1.82478 15.9639 1.78335C15.9886 1.74193 16.0045 1.69587 16.0106 1.64804C16.0168 1.60021 16.013 1.55163 15.9996 1.50531C15.9862 1.45899 15.9634 1.41592 15.9326 1.37878C15.8863 1.31332 15.8344 1.25058 15.7826 1.19057C15.7552 1.15041 15.7197 1.1165 15.6782 1.09108C15.6368 1.06567 15.5905 1.04932 15.5423 1.04314C15.4941 1.03695 15.4451 1.04106 15.3986 1.05519C15.3521 1.06932 15.3091 1.09315 15.2725 1.12511C15.0707 1.27786 14.877 1.44424 14.6752 1.59699C14.5988 1.65155 14.6015 1.68974 14.6561 1.75793C14.8334 1.97615 15.0025 2.20254 15.188 2.43439ZM18.9439 6.78228C18.9338 6.6326 18.8671 6.49236 18.7575 6.38993C18.6479 6.28751 18.5035 6.23054 18.3534 6.23054C18.2034 6.23054 18.059 6.28751 17.9493 6.38993C17.8397 6.49236 17.7731 6.6326 17.7629 6.78228C17.7636 6.86132 17.7799 6.93943 17.8109 7.01215C17.8419 7.08486 17.8869 7.15075 17.9434 7.206C18 7.26125 18.0669 7.30479 18.1403 7.33413C18.2137 7.36346 18.2921 7.37799 18.3711 7.37691C18.5253 7.37194 18.6714 7.30702 18.7784 7.19596C18.8853 7.0849 18.9447 6.93648 18.9439 6.78228ZM14.6697 9.6736C14.6697 9.82908 14.6697 9.98183 14.6697 10.1373C14.6697 10.1782 14.6533 10.2246 14.6943 10.2573C14.8552 10.3719 15.2398 10.2191 15.2398 10.02C15.2575 9.79215 15.2575 9.56324 15.2398 9.33537C15.2262 9.14716 15.0652 9.07898 14.7734 9.09262C14.5661 9.09262 14.6752 9.25355 14.6615 9.34083C14.6547 9.45179 14.6574 9.56312 14.6697 9.6736Z" fill="#030303"/>
<path d="M5.80217 7.4645C4.43834 7.4645 3.09087 7.4645 1.73795 7.4645C1.58247 7.4645 1.54428 7.42358 1.54701 7.27083C1.54701 6.13885 1.54701 5.0096 1.54701 3.87762C1.54701 3.48211 1.67521 3.35938 2.07345 3.35938H9.56634C9.95913 3.35938 10.0928 3.49302 10.0928 3.88035C10.0928 5.01233 10.0928 6.14431 10.0928 7.27356C10.0928 7.43722 10.041 7.4645 9.89367 7.46177C8.53529 7.46177 7.16873 7.4645 5.80217 7.4645Z" fill="#FDFDFD"/>
<path d="M14.311 18.9503C13.2608 18.9503 12.2107 18.9503 11.1605 18.9503C11.0323 18.9503 10.9941 18.9231 10.9941 18.7894C10.9941 16.9182 10.9941 15.0471 10.9941 13.1759C10.9941 13.0395 11.0269 13.0013 11.166 13.004C13.2608 13.004 15.352 13.004 17.4396 13.004C17.5787 13.004 17.6251 13.0341 17.6251 13.1841C17.6251 15.0498 17.6251 16.9146 17.6251 18.7785C17.6251 18.9231 17.5842 18.9503 17.4505 18.9503C16.4113 18.9476 15.3611 18.9503 14.311 18.9503ZM14.311 13.6614H12.4316C12.3444 13.654 12.2566 13.6657 12.1743 13.6956C12.092 13.7256 12.0172 13.7731 11.9552 13.8349C11.8932 13.8967 11.8453 13.9713 11.815 14.0534C11.7847 14.1356 11.7726 14.2233 11.7797 14.3106C11.7797 14.8325 11.7797 15.3535 11.7797 15.8735C11.7726 15.9608 11.7847 16.0486 11.815 16.1307C11.8453 16.2129 11.8932 16.2874 11.9552 16.3492C12.0172 16.411 12.092 16.4585 12.1743 16.4885C12.2566 16.5185 12.3444 16.5301 12.4316 16.5227H16.1931C16.2789 16.5283 16.365 16.5155 16.4456 16.4853C16.5261 16.4552 16.5994 16.4082 16.6605 16.3476C16.7216 16.2871 16.7691 16.2142 16.8 16.1339C16.8309 16.0536 16.8443 15.9676 16.8395 15.8817C16.8395 15.3598 16.8395 14.8389 16.8395 14.3188C16.8472 14.2298 16.8351 14.1403 16.8043 14.0565C16.7734 13.9727 16.7244 13.8967 16.6609 13.834C16.5974 13.7712 16.5209 13.7233 16.4367 13.6934C16.3525 13.6636 16.2628 13.6527 16.174 13.6614H14.311Z" fill="#FDFDFD"/>
<path d="M2.35938 15.9667C2.35938 15.042 2.35938 14.1173 2.35938 13.1899C2.35938 13.0399 2.40302 13.0072 2.54485 13.0099C3.13767 13.0099 3.72775 13.0099 4.3151 13.0099C4.4624 13.0099 4.48422 13.0563 4.48422 13.1872C4.48422 15.0584 4.48422 16.9287 4.48422 18.798C4.48422 18.9289 4.44877 18.959 4.32057 18.959C3.71684 18.959 3.11492 18.959 2.51484 18.959C2.38936 18.959 2.35936 18.9262 2.36209 18.8062C2.36209 17.857 2.36119 16.9105 2.35938 15.9667Z" fill="#FDFDFD"/>
<path d="M9.99778 12.4011H5.11526C3.81689 12.4011 2.51852 12.4011 1.22015 12.4011C1.08377 12.4011 1.02922 12.3765 1.04559 12.232C1.06196 12.0874 0.991033 11.8419 1.07559 11.7465C1.16015 11.651 1.40018 11.711 1.57203 11.711H14.152C15.6931 11.711 17.2343 11.711 18.7754 11.711C18.909 11.711 18.9636 11.7355 18.9472 11.8828C18.9309 12.0301 19.0018 12.2702 18.9172 12.3684C18.8327 12.4666 18.5926 12.4011 18.4208 12.4011C15.9605 12.4011 13.5001 12.4011 11.0397 12.4011H9.99778Z" fill="#FEFEFE"/>
<path d="M5.82385 8.06164C7.18768 8.06164 8.55151 8.06164 9.91534 8.06164C10.049 8.06164 10.1008 8.08619 10.0926 8.23076C10.0926 8.46806 10.0926 8.70265 10.0926 8.93996C10.0926 9.29183 9.94535 9.43911 9.59621 9.43911H6.63397H2.0706C1.67509 9.43911 1.54688 9.31364 1.54688 8.9154C1.54688 8.69173 1.54688 8.46806 1.54688 8.24439C1.54688 8.10255 1.57689 8.05891 1.72691 8.06164C3.09074 8.06437 4.45729 8.06164 5.82385 8.06164ZM6.11844 8.75446C6.11844 8.67561 6.08711 8.59999 6.03135 8.54423C5.9756 8.48847 5.89999 8.45716 5.82113 8.45716C5.74228 8.45716 5.66666 8.48847 5.6109 8.54423C5.55514 8.59999 5.52381 8.67561 5.52381 8.75446C5.52381 8.83332 5.55514 8.90894 5.6109 8.9647C5.66666 9.02046 5.74228 9.05179 5.82113 9.05179C5.89999 9.05179 5.9756 9.02046 6.03135 8.9647C6.08711 8.90894 6.11844 8.83332 6.11844 8.75446Z" fill="#FBFBFB"/>
<path d="M14.0741 9.75571C14.0741 10.1539 14.0741 10.5522 14.0741 10.9504C14.0741 11.0814 14.0359 11.1141 13.9077 11.1141C13.3731 11.1141 12.8385 11.1141 12.3039 11.1141C12.1811 11.1141 12.1348 11.0868 12.1348 10.9504C12.1348 10.163 12.1348 9.37473 12.1348 8.58553C12.1348 8.47097 12.1539 8.42188 12.2875 8.42188C12.8331 8.42188 13.3786 8.42188 13.9241 8.42188C14.0551 8.42188 14.0741 8.46824 14.0714 8.5828C14.0714 8.97285 14.0741 9.36565 14.0741 9.75571Z" fill="#FAFAFA"/>
<path d="M14.8449 3.18453C14.8501 3.27771 14.8344 3.37087 14.799 3.45723C14.7636 3.54358 14.7094 3.62095 14.6403 3.68369C14.4739 3.83099 14.3048 4.05466 14.1166 4.07648C13.9284 4.0983 13.822 3.80372 13.6857 3.63733C13.3638 3.25273 13.0637 2.84903 12.75 2.45625C12.6846 2.37714 12.6791 2.3335 12.7691 2.27077C12.9164 2.16984 13.0419 2.0471 13.1974 1.94344C13.2656 1.88886 13.344 1.84847 13.428 1.82464C13.512 1.80082 13.5999 1.79404 13.6866 1.80471C13.7733 1.81539 13.8569 1.84331 13.9326 1.88681C14.0084 1.93031 14.0746 1.98851 14.1275 2.058C14.3157 2.28712 14.4985 2.52443 14.6731 2.75901C14.782 2.87406 14.8434 3.02608 14.8449 3.18453Z" fill="#FBFBFB"/>
<path d="M5.82889 10.0393C6.02801 10.0393 6.22712 10.0393 6.42352 10.0393C6.50535 10.0393 6.53263 10.0584 6.5299 10.1429C6.5299 10.4157 6.5299 10.713 6.5299 10.9967C6.5299 11.0867 6.50535 11.1167 6.41534 11.114H5.22607C5.13606 11.114 5.10878 11.0867 5.11151 10.9967C5.11151 10.7239 5.11151 10.4266 5.11151 10.1429C5.11151 10.0584 5.13879 10.0366 5.21789 10.0393C5.41974 10.042 5.62431 10.0393 5.82889 10.0393Z" fill="#FAFAFA"/>
<path d="M15.1888 2.43468C15.0033 2.20283 14.8342 1.98189 14.6433 1.7664C14.5887 1.69821 14.586 1.66003 14.6623 1.60548C14.8642 1.45273 15.0578 1.28633 15.2597 1.13358C15.2963 1.10162 15.3393 1.07781 15.3858 1.06368C15.4323 1.04955 15.4813 1.04544 15.5295 1.05162C15.5777 1.05781 15.624 1.07416 15.6654 1.09957C15.7069 1.12498 15.7424 1.15889 15.7698 1.19906C15.8216 1.25907 15.8734 1.32181 15.9198 1.38727C15.9506 1.42441 15.9734 1.46746 15.9868 1.51378C16.0002 1.5601 16.004 1.60868 15.9978 1.65651C15.9917 1.70434 15.9758 1.7504 15.9511 1.79182C15.9264 1.83325 15.8935 1.86918 15.8543 1.89734C15.647 2.07737 15.4234 2.2492 15.1888 2.43468Z" fill="#FAFAFA"/>
<path d="M18.9428 6.78201C18.9429 6.93574 18.8831 7.08347 18.7762 7.19394C18.6693 7.30441 18.5236 7.36895 18.37 7.37391C18.2909 7.37499 18.2125 7.36046 18.1391 7.33112C18.0657 7.30179 17.9988 7.25825 17.9423 7.203C17.8858 7.14775 17.8407 7.08187 17.8097 7.00916C17.7787 6.93645 17.7624 6.85832 17.7617 6.77928C17.7719 6.6296 17.8386 6.48937 17.9482 6.38695C18.0578 6.28452 18.2022 6.22754 18.3523 6.22754C18.5023 6.22754 18.6467 6.28452 18.7564 6.38695C18.866 6.48937 18.9326 6.6296 18.9428 6.77928V6.78201Z" fill="#FAFAFA"/>
<path d="M14.6684 9.67348C14.6602 9.56271 14.6602 9.45149 14.6684 9.34071C14.6684 9.25343 14.573 9.10341 14.7803 9.0925C15.0721 9.07887 15.2331 9.14704 15.2467 9.33525C15.2644 9.56312 15.2644 9.79203 15.2467 10.0199C15.2331 10.219 14.8512 10.3718 14.7012 10.2572C14.6602 10.2245 14.6766 10.1781 14.6766 10.1372C14.6684 9.98171 14.6712 9.82896 14.6684 9.67348Z" fill="#F7F7F7"/>
<path d="M14.3184 13.6611H16.1814C16.2702 13.6524 16.3599 13.6633 16.4441 13.6931C16.5282 13.723 16.6048 13.771 16.6683 13.8337C16.7319 13.8964 16.7808 13.9724 16.8117 14.0562C16.8425 14.14 16.8546 14.2295 16.8469 14.3185C16.8469 14.8404 16.8469 15.3614 16.8469 15.8814C16.8517 15.9673 16.8383 16.0533 16.8074 16.1336C16.7766 16.2139 16.729 16.2868 16.6679 16.3473C16.6068 16.4079 16.5335 16.4549 16.453 16.485C16.3724 16.5152 16.2863 16.528 16.2005 16.5224H12.439C12.3518 16.5299 12.264 16.5182 12.1817 16.4882C12.0994 16.4582 12.0247 16.4107 11.9626 16.3489C11.9006 16.2871 11.8527 16.2126 11.8224 16.1304C11.7921 16.0483 11.7801 15.9605 11.7871 15.8733C11.7871 15.3514 11.7871 14.8304 11.7871 14.3103C11.7801 14.223 11.7921 14.1353 11.8224 14.0531C11.8527 13.971 11.9006 13.8964 11.9626 13.8346C12.0247 13.7728 12.0994 13.7253 12.1817 13.6953C12.264 13.6654 12.3518 13.6537 12.439 13.6611H14.3184ZM14.3402 14.2558C13.7401 14.2558 13.1373 14.2558 12.5345 14.2558C12.4172 14.2558 12.3763 14.2803 12.379 14.4058C12.379 14.8531 12.379 15.3004 12.379 15.7478C12.379 15.8869 12.4036 15.9333 12.5563 15.9333C13.7292 15.9333 14.9021 15.9333 16.075 15.9333C16.2087 15.9333 16.2578 15.9114 16.255 15.7641C16.255 15.3168 16.255 14.8695 16.255 14.4221C16.255 14.2939 16.2223 14.2558 16.0914 14.2585C15.5077 14.2503 14.9239 14.2503 14.3402 14.2503V14.2558Z" fill="#030303"/>
<path d="M6.11807 8.75434C6.11807 8.83319 6.08674 8.90881 6.03098 8.96457C5.97522 9.02033 5.89961 9.05166 5.82076 9.05166C5.74191 9.05166 5.66628 9.02033 5.61052 8.96457C5.55477 8.90881 5.52344 8.83319 5.52344 8.75434C5.52344 8.67548 5.55477 8.59986 5.61052 8.5441C5.66628 8.48834 5.74191 8.45703 5.82076 8.45703C5.89961 8.45703 5.97522 8.48834 6.03098 8.5441C6.08674 8.59986 6.11807 8.67548 6.11807 8.75434Z" fill="#080808"/>
<path d="M14.3383 14.2508C14.922 14.2508 15.5058 14.2508 16.0895 14.2508C16.2204 14.2508 16.2559 14.2862 16.2531 14.4144C16.2531 14.8618 16.2531 15.3091 16.2531 15.7565C16.2531 15.9037 16.2068 15.9283 16.0731 15.9256C14.9002 15.9256 13.7273 15.9256 12.5544 15.9256C12.4017 15.9256 12.3744 15.8792 12.3771 15.7401C12.3771 15.2928 12.3771 14.8454 12.3771 14.3981C12.3771 14.2726 12.4153 14.248 12.5326 14.248C13.1354 14.2508 13.7382 14.2508 14.3383 14.2508ZM14.3138 14.7963C14.2363 14.797 14.1622 14.8279 14.1072 14.8824C14.0522 14.9369 14.0206 15.0107 14.0192 15.0882C14.018 15.128 14.0251 15.1676 14.04 15.2046C14.0548 15.2416 14.0772 15.2751 14.1056 15.303C14.134 15.3309 14.1679 15.3526 14.2052 15.3668C14.2424 15.381 14.2822 15.3874 14.322 15.3855C14.3606 15.3851 14.3989 15.3772 14.4345 15.362C14.4701 15.3469 14.5024 15.3249 14.5295 15.2973C14.5566 15.2697 14.578 15.237 14.5924 15.2011C14.6069 15.1652 14.6142 15.1269 14.6138 15.0882C14.6103 15.0105 14.5774 14.937 14.5216 14.8828C14.4659 14.8285 14.3915 14.7976 14.3138 14.7963Z" fill="#FBFBFB"/>
<path d="M14.3142 14.7959C14.392 14.7972 14.4664 14.8281 14.5221 14.8824C14.5779 14.9366 14.6108 15.0101 14.6143 15.0878C14.6146 15.1264 14.6074 15.1648 14.5929 15.2007C14.5784 15.2366 14.557 15.2693 14.5299 15.2969C14.5028 15.3245 14.4705 15.3465 14.4349 15.3616C14.3993 15.3767 14.3611 15.3847 14.3224 15.3851C14.2826 15.387 14.2428 15.3806 14.2056 15.3664C14.1684 15.3522 14.1345 15.3305 14.1061 15.3026C14.0776 15.2747 14.0553 15.2412 14.0404 15.2042C14.0256 15.1672 14.0185 15.1276 14.0197 15.0878C14.0211 15.0103 14.0526 14.9365 14.1077 14.882C14.1627 14.8275 14.2368 14.7966 14.3142 14.7959Z" fill="#080808"/>
</svg>
