<svg width="8" height="14" viewBox="0 0 8 14" fill="none" xmlns="http://www.w3.org/2000/svg">
<g clip-path="url(#clip0_1033_27622)">
<path d="M2.25975 10.7772C2.25975 9.87177 2.25758 8.96631 2.26236 8.06085C2.26323 7.93355 2.23543 7.88872 2.10342 7.89096C1.63791 7.89948 1.1724 7.89679 0.706458 7.89365C0.318678 7.89096 0.250936 7.8188 0.250501 7.42479C0.250067 6.78783 0.249633 6.15042 0.250501 5.51346C0.250936 5.15665 0.335179 5.06969 0.683443 5.06835C1.14374 5.067 1.60404 5.05804 2.06391 5.07283C2.23674 5.07821 2.26279 5.01949 2.26323 4.85857C2.26583 4.24985 2.23717 3.64113 2.28711 3.03241C2.41825 1.43216 3.51646 0.290027 5.06497 0.158242C5.75151 0.09997 6.43936 0.138968 7.12633 0.136278C7.33955 0.135382 7.44333 0.234893 7.44594 0.453637C7.45419 1.1296 7.45375 1.806 7.44594 2.48241C7.44333 2.69219 7.35952 2.77735 7.15325 2.78542C6.70425 2.8029 6.25524 2.80425 5.80579 2.81232C5.28861 2.82173 5.08668 3.02703 5.08191 3.55551C5.078 4.00824 5.08321 4.46097 5.07496 4.9137C5.07235 5.0419 5.11187 5.07238 5.23085 5.07104C5.78842 5.06476 6.34599 5.0679 6.904 5.0688C6.96349 5.0688 7.02342 5.0688 7.08204 5.07731C7.28179 5.10555 7.35909 5.18713 7.36039 5.39691C7.36386 6.12352 7.36386 6.85013 7.35995 7.57674C7.35909 7.78787 7.28092 7.87796 7.07552 7.88155C6.47496 7.89276 5.87397 7.89858 5.27297 7.89096C5.10666 7.88872 5.06758 7.93624 5.06845 8.10478C5.07453 9.84308 5.07235 11.5809 5.07235 13.3192C5.07235 13.824 5.02111 13.8769 4.53563 13.8769C3.91292 13.8769 3.29021 13.8778 2.66751 13.8764C2.34573 13.876 2.25975 13.7886 2.25975 13.4613C2.25888 12.5657 2.25975 11.6715 2.25975 10.7772Z" fill="#3D6AD5"/>
</g>
<defs>
<clipPath id="clip0_1033_27622">
<rect width="7.20238" height="13.75" fill="white" transform="translate(0.25 0.125)"/>
</clipPath>
</defs>
</svg>
