<svg width="14" height="14" viewBox="0 0 14 14" fill="none" xmlns="http://www.w3.org/2000/svg">
<g clip-path="url(#clip0_1033_27612)">
<path d="M3.86158 5.12422C3.64077 5.52981 3.46879 5.95228 3.39698 6.41315C3.26665 7.2509 3.40596 8.03839 3.81419 8.77995C3.83142 8.81082 3.84543 8.84348 3.86123 8.87543C3.66375 9.06997 3.46556 9.26415 3.26916 9.45977C2.69469 10.0308 2.12093 10.6026 1.54682 11.174C1.54 11.1686 1.53138 11.1643 1.52635 11.1575C0.822266 10.2322 0.383513 9.19416 0.202913 8.04557C0.17778 7.88513 0.190705 7.71823 0.125 7.5646C0.125 7.18844 0.125 6.81264 0.125 6.43648C0.188192 6.2825 0.17778 6.11595 0.202913 5.95551C0.382795 4.80728 0.82083 3.76961 1.52492 2.84464C1.52994 2.83782 1.53856 2.83351 1.54538 2.82812C1.58488 2.86438 1.62545 2.89955 1.66315 2.9376C2.26491 3.53845 2.86559 4.14002 3.46735 4.74052C3.59769 4.86974 3.73017 4.99644 3.86158 5.12422Z" fill="#FABC00"/>
<path d="M1.54688 11.1736C2.12099 10.6022 2.69474 10.0304 3.26922 9.45934C3.46597 9.26372 3.66381 9.0699 3.86128 8.875C4.12338 9.27772 4.4318 9.63845 4.82065 9.92631C5.46909 10.4058 6.19938 10.6409 7.00293 10.6567C7.00293 11.7296 7.00257 12.8024 7.00257 13.8753C6.81443 13.8753 6.62629 13.8753 6.43851 13.8753C6.42199 13.8362 6.38573 13.8498 6.35701 13.8469C5.08814 13.7213 3.93632 13.287 2.91161 12.5268C2.39279 12.142 1.92854 11.6987 1.54688 11.1736Z" fill="#31AA52"/>
<path d="M7.00391 13.8748C7.00391 12.8019 7.00427 11.7291 7.00427 10.6562C7.67496 10.6476 8.2997 10.4714 8.88243 10.1426C9.30467 10.5672 9.72691 10.9922 10.1488 11.4168C10.492 11.7624 10.8349 12.1085 11.1782 12.4541C10.622 12.9006 10.0001 13.2276 9.33196 13.4706C8.79159 13.6673 8.23328 13.7865 7.66132 13.845C7.62972 13.8482 7.58735 13.8285 7.56797 13.8744C7.38019 13.8748 7.19205 13.8748 7.00391 13.8748Z" fill="#0F9D58"/>
<path d="M11.1775 12.4551C10.8342 12.1091 10.4914 11.7634 10.1481 11.4178C9.72623 10.9928 9.304 10.5682 8.88176 10.1436C9.39089 9.81911 9.81923 9.41459 10.1284 8.89162C10.1725 8.81697 10.2695 8.73262 10.2293 8.66119C10.1991 8.60771 10.072 8.64504 9.98834 8.64504C9.03938 8.64396 8.09078 8.64252 7.14183 8.64683C7.03232 8.64719 6.99964 8.62242 7 8.50828C7.00467 7.52409 7.00431 6.53954 7.00072 5.55534C7.00036 5.45448 7.02047 5.41859 7.13105 5.41895C9.27922 5.42254 11.4277 5.42218 13.5759 5.41967C13.6732 5.41967 13.7124 5.44264 13.7317 5.54601C14.1827 7.97383 13.5752 10.0876 11.8561 11.87C11.6493 12.0847 11.4277 12.2875 11.1775 12.4551Z" fill="#3C79E5"/>
<path d="M3.86236 5.12389C3.73095 4.99611 3.59846 4.86941 3.46884 4.73983C2.86708 4.13934 2.26604 3.53776 1.66464 2.93691C1.62658 2.89922 1.58601 2.86405 1.54688 2.82744C1.88438 2.35975 2.29118 1.95882 2.7425 1.60383C3.96828 0.6401 5.3646 0.152669 6.92322 0.125031C6.94979 0.124672 6.97672 0.127543 7.00329 0.128979C7.00329 1.20039 7.00329 2.27145 7.00329 3.34286C6.20477 3.35866 5.47878 3.59089 4.8325 4.0654C4.43863 4.3547 4.12733 4.71758 3.86236 5.12389Z" fill="#EA4132"/>
<path d="M7.00391 3.3429C7.00391 2.27148 7.00391 1.20043 7.00391 0.129012C8.18624 0.122552 9.29354 0.411134 10.3294 0.978607C10.9907 1.34077 11.5641 1.81456 12.0866 2.3544C12.1393 2.40895 12.14 2.4391 12.0862 2.49259C11.3695 3.20579 10.654 3.92006 9.94161 4.63757C9.87376 4.70577 9.84324 4.6749 9.79513 4.62501C9.50358 4.31991 9.19121 4.04138 8.82211 3.82997C8.25877 3.50693 7.65019 3.35618 7.00391 3.3429Z" fill="#CE2D48"/>
</g>
<defs>
<clipPath id="clip0_1033_27612">
<rect width="13.75" height="13.75" fill="white" transform="translate(0.125 0.125)"/>
</clipPath>
</defs>
</svg>
