<svg width="13" height="18" viewBox="0 0 13 18" fill="none" xmlns="http://www.w3.org/2000/svg">
<path d="M10.7444 1.56823C10.9441 1.08661 10.7952 0.524128 10.3856 0.214764C9.97607 -0.0946005 9.4176 -0.0664765 9.03513 0.278043L0.370334 8.15276C0.0318652 8.46213 -0.0899835 8.95781 0.0690967 9.39374C0.228177 9.82966 0.634339 10.125 1.0845 10.125H4.85843L2.2556 16.4318C2.05591 16.9134 2.20483 17.4759 2.61438 17.7852C3.02393 18.0946 3.5824 18.0665 3.96487 17.722L12.6297 9.84724C12.9681 9.53787 13.09 9.04219 12.9309 8.60626C12.7718 8.17034 12.369 7.87856 11.9155 7.87856H8.14157L10.7444 1.56823Z" fill="#FF5A5F"/>
</svg>
