<svg width="15" height="15" viewBox="0 0 15 15" fill="none" xmlns="http://www.w3.org/2000/svg">
<g clip-path="url(#clip0_667_111137)">
<path d="M11.1898 -0.000225956H13.1898C13.6238 -0.0195182 14.0496 0.123362 14.3841 0.400615C14.7187 0.677868 14.9381 1.06966 14.9998 1.49977C15.0097 1.60287 15.0097 1.70668 14.9998 1.80977V5.67977C15.0146 6.14891 14.9336 6.61614 14.7617 7.05288C14.5897 7.48963 14.3305 7.88669 13.9998 8.21977L7.78977 14.4198C7.62562 14.6035 7.42452 14.7505 7.19963 14.8511C6.97475 14.9518 6.73115 15.0038 6.48477 15.0038C6.23839 15.0038 5.99479 14.9518 5.7699 14.8511C5.54502 14.7505 5.34392 14.6035 5.17977 14.4198L0.569769 9.85977C0.39041 9.69405 0.247285 9.493 0.149397 9.26927C0.0515097 9.04554 0.000976563 8.80398 0.000976562 8.55977C0.000976563 8.31557 0.0515097 8.07401 0.149397 7.85028C0.247285 7.62655 0.39041 7.4255 0.569769 7.25977L6.75977 1.05977C7.08926 0.71748 7.48572 0.446712 7.92443 0.264344C8.36315 0.0819752 8.83472 -0.00808533 9.30977 -0.000225956H11.1898ZM13.8298 3.79977V1.85977C13.8431 1.76605 13.8345 1.6705 13.8045 1.58069C13.7746 1.49088 13.7242 1.40927 13.6572 1.34233C13.5903 1.27539 13.5087 1.22494 13.4189 1.19499C13.329 1.16504 13.2335 1.15641 13.1398 1.16977H9.35977C9.02371 1.15996 8.6894 1.22176 8.37906 1.35107C8.06872 1.48038 7.78944 1.67424 7.55977 1.91977C5.52977 3.99977 3.47977 5.99977 1.43977 8.04977C1.36123 8.10736 1.29736 8.18263 1.25334 8.2695C1.20932 8.35637 1.18637 8.45239 1.18637 8.54977C1.18637 8.64716 1.20932 8.74318 1.25334 8.83005C1.29736 8.91691 1.36123 8.99219 1.43977 9.04977L5.99977 13.5898C6.0545 13.6723 6.1288 13.74 6.21604 13.7868C6.30328 13.8336 6.40076 13.8581 6.49977 13.8581C6.59878 13.8581 6.69625 13.8336 6.7835 13.7868C6.87074 13.74 6.94504 13.6723 6.99977 13.5898C8.99977 11.5298 11.0431 9.45977 13.1298 7.37977C13.3574 7.1579 13.5369 6.89162 13.6574 6.59747C13.7778 6.30331 13.8365 5.98755 13.8298 5.66977V3.79977Z" fill="#F74850"/>
<path d="M10.76 2.43018C11.1081 2.43018 11.4484 2.5334 11.7378 2.72679C12.0272 2.92018 12.2528 3.19505 12.386 3.51665C12.5192 3.83825 12.5541 4.19213 12.4862 4.53353C12.4183 4.87494 12.2506 5.18854 12.0045 5.43468C11.7584 5.68082 11.4448 5.84845 11.1034 5.91636C10.762 5.98427 10.4081 5.94941 10.0865 5.8162C9.76488 5.68299 9.49 5.45741 9.29661 5.16798C9.10322 4.87855 9 4.53827 9 4.19018C9 3.95905 9.04552 3.73019 9.13397 3.51665C9.22242 3.30312 9.35206 3.1091 9.51549 2.94567C9.84556 2.6156 10.2932 2.43018 10.76 2.43018ZM10.76 3.60018C10.6053 3.6028 10.4577 3.66612 10.3493 3.77648C10.2408 3.88684 10.18 4.03542 10.18 4.19018C10.18 4.26719 10.1953 4.34344 10.2251 4.41447C10.2549 4.4855 10.2985 4.54988 10.3534 4.60387C10.4083 4.65786 10.4734 4.70038 10.545 4.72893C10.6165 4.75748 10.693 4.7715 10.77 4.77018C10.847 4.77019 10.9233 4.75486 10.9943 4.72509C11.0653 4.69532 11.1297 4.6517 11.1837 4.59678C11.2377 4.54186 11.2802 4.47673 11.3088 4.4052C11.3373 4.33368 11.3513 4.25718 11.35 4.18018C11.3487 4.10269 11.3321 4.02622 11.3013 3.95514C11.2704 3.88406 11.2259 3.81975 11.1701 3.76589C11.1144 3.71203 11.0486 3.66967 10.9766 3.64124C10.9045 3.6128 10.8275 3.59885 10.75 3.60018H10.76Z" fill="#F74850"/>
</g>
<defs>
<clipPath id="clip0_667_111137">
<rect width="15" height="15" fill="white"/>
</clipPath>
</defs>
</svg>
